<svg xmlns="http://www.w3.org/2000/svg" width="184.597" height="25.226" viewBox="0 0 184.597 25.226">
  <g id="Group_3" data-name="Group 3" transform="translate(-328.646 -285.027)">
    <g id="Group_1" data-name="Group 1">
      <path id="Path_1" data-name="Path 1" d="M342.81,309.778H328.646l3.951-24.51h5.585l-3.069,19.2h8.56Z" fill="#fff"/>
      <path id="Path_2" data-name="Path 2" d="M377.084,285.269q4.059,0,5.8,2.25a6.836,6.836,0,0,1,1.276,4.25,13.054,13.054,0,0,1-.151,1.94l-1.219,7.591a10.532,10.532,0,0,1-3.032,6.165,8.736,8.736,0,0,1-6.27,2.313h-9.037l3.938-24.509Zm-1.959,5.309h-2.012L370.9,304.473h2.951a2.986,2.986,0,0,0,2.28-.877,5.4,5.4,0,0,0,1.138-2.84l.9-5.578a7.789,7.789,0,0,0,.128-1.367Q378.3,290.583,375.125,290.578Z" fill="#fff"/>
      <path id="Path_3" data-name="Path 3" d="M394.748,285.269l-3.912,24.51h-5.619l3.944-24.51Z" fill="#fff"/>
      <path id="Path_4" data-name="Path 4" d="M404.992,285.269l3.326,11.746,7.137-11.746h5.864l-3.928,24.51h-5.632L414,295.959l-4.777,8.234h-4.07l-2.11-8.234L400.8,309.778h-5.587l3.944-24.51Z" fill="#fff"/>
      <path id="Path_5" data-name="Path 5" d="M432.84,309.778l.189-5.339h-5.185l-1.524,5.339h-5.926l7.975-24.509h10.244l.127,24.509Zm-1.271-18.549-2.457,8.642h4.07l.343-8.642Z" fill="#fff"/>
      <path id="Path_6" data-name="Path 6" d="M451.223,285.269l-3.912,24.51h-5.619l3.941-24.51Z" fill="#fff"/>
      <path id="Path_7" data-name="Path 7" d="M472.86,285.269l-3.911,24.51h-5.615l-3.916-13.414L457.3,309.778h-5.621l3.951-24.51h5.77l3.848,12.53,2.019-12.53Z" fill="#fff"/>
      <path id="Path_8" data-name="Path 8" d="M485.4,285.027q7.488,0,7.5,6.711a14.121,14.121,0,0,1-.226,2.414l-1.09,6.808c-.5,3.154-1.565,5.494-3.227,7.014s-3.986,2.279-6.986,2.279-5.091-.758-6.277-2.279a6.926,6.926,0,0,1-1.206-4.321,16.62,16.62,0,0,1,.249-2.693l1.085-6.808q1.475-9.123,10.182-9.125m-3.191,19.951a3.453,3.453,0,0,0,2.482-.886A5.749,5.749,0,0,0,486,300.824l1.047-6.536a7.81,7.81,0,0,0,.085-1.221c0-1.838-.841-2.764-2.538-2.764-2.133.052-3.4,1.375-3.816,3.985l-1.055,6.536a12.094,12.094,0,0,0-.125,1.766C479.6,304.186,480.469,304.978,482.207,304.978Z" fill="#fff"/>
      <path id="Path_9" data-name="Path 9" d="M499.869,302.8c0,1.565,1.029,2.341,3.09,2.341s3.087-.7,3.087-2.107a2.141,2.141,0,0,0-1.06-1.834,9.615,9.615,0,0,0-2.554-1.2c-1.006-.324-2.005-.689-3.012-1.1a6.365,6.365,0,0,1-2.563-1.97,5.288,5.288,0,0,1-1.058-3.358q0-8.541,10.032-8.547a8.661,8.661,0,0,1,5.544,1.519,5.084,5.084,0,0,1,1.868,4.2,7.961,7.961,0,0,1-.221,1.892,4.68,4.68,0,0,1-.483,1.277l-.249.409H506.8a2.925,2.925,0,0,0,.675-1.982c0-1.472-.871-2.208-2.643-2.208-2.206,0-3.314.77-3.314,2.315a2.083,2.083,0,0,0,1.055,1.837,8.7,8.7,0,0,0,2.565,1.07,30.1,30.1,0,0,1,3.022.976,5.857,5.857,0,0,1,2.577,1.921,5.456,5.456,0,0,1,1.056,3.491c0,2.879-.78,5.02-2.359,6.416s-3.988,2.091-7.262,2.091-5.512-.633-6.712-1.9a5.578,5.578,0,0,1-1.33-3.954,12.278,12.278,0,0,1,.184-2.077l.09-.542H500l-.067.411a3.713,3.713,0,0,0-.061.613" fill="#fff"/>
    </g>
    <g id="Group_2" data-name="Group 2">
      <path id="Path_10" data-name="Path 10" d="M346.786,300.294h15.586l.871-5.311h-15.6Z" fill="#ea0b8c"/>
      <path id="Path_11" data-name="Path 11" d="M345.128,309.866h15.579l.879-5.3h-15.6Z" fill="#ea0b8c"/>
      <path id="Path_12" data-name="Path 12" d="M349.239,285.411l-.859,5.31h15.573l.869-5.31Z" fill="#ea0b8c"/>
    </g>
  </g>
</svg>
